<svg xmlns="http://www.w3.org/2000/svg" xmlns:xlink="http://www.w3.org/1999/xlink" width="300" height="300" fill="none" xmlns:v="https://vecta.io/nano"><g clip-path="url(#B)"><mask id="A" maskUnits="userSpaceOnUse" x="0" y="0" width="300" height="300" mask-type="alpha"><path d="M150 300c82.843 0 150-67.157 150-150S232.843 0 150 0 0 67.157 0 150s67.157 150 150 150z" fill="#d9d9d9"/></mask><g mask="url(#A)"><use xlink:href="#C" fill="#000"/><use xlink:href="#D" fill="#000"/><path d="M225.51 67.45a3.51 3.51 0 1 0 0-7.02 3.51 3.51 0 1 0 0 7.02zm0 226a3.51 3.51 0 0 0 0-7.02 3.51 3.51 0 0 0 0 7.02zM13.7 67.45a3.51 3.51 0 1 0 0-7.02 3.51 3.51 0 1 0 0 7.02zm0 226a3.51 3.51 0 0 0 0-7.02 3.51 3.51 0 0 0 0 7.02zm121-226a3.51 3.51 0 1 0 0-7.02 3.51 3.51 0 1 0 0 7.02zm0 226a3.51 3.51 0 0 0 0-7.02 3.51 3.51 0 0 0 0 7.02zm121-226a3.51 3.51 0 1 0 0-7.02 3.51 3.51 0 1 0 0 7.02zm0 226a3.51 3.51 0 0 0 0-7.02 3.51 3.51 0 0 0 0 7.02zm-211.82-226a3.51 3.51 0 1 0 0-7.02 3.51 3.51 0 1 0 0 7.02zm0 226a3.51 3.51 0 0 0 0-7.02 3.51 3.51 0 0 0 0 7.02zm121-226a3.51 3.51 0 1 0 0-7.02 3.51 3.51 0 1 0 0 7.02zm0 226a3.51 3.51 0 0 0 0-7.02 3.51 3.51 0 0 0 0 7.02zm121-226a3.51 3.51 0 1 0 0-7.02 3.51 3.51 0 1 0 0 7.02zm0 226a3.51 3.51 0 0 0 0-7.02 3.51 3.51 0 0 0 0 7.02zm-211.81-226a3.51 3.51 0 1 0 0-7.02 3.51 3.51 0 1 0 0 7.02zm0 226a3.51 3.51 0 0 0 0-7.02 3.51 3.51 0 0 0 0 7.02zm121-226a3.51 3.51 0 1 0 0-7.02 3.51 3.51 0 1 0 0 7.02zm0 226a3.51 3.51 0 0 0 0-7.02 3.51 3.51 0 0 0 0 7.02zM104.51 96.08a3.51 3.51 0 0 0 0-7.02 3.51 3.51 0 0 0 0 7.02z" fill="#000"/><use xlink:href="#E" fill="#000"/><path d="M13.7 96.08a3.51 3.51 0 0 0 0-7.02 3.51 3.51 0 0 0 0 7.02zm121 0a3.51 3.51 0 1 0 0-7.02 3.51 3.51 0 0 0 0 7.02zm121 0a3.51 3.51 0 0 0 0-7.02 3.51 3.51 0 0 0 0 7.02zm-211.82 0a3.51 3.51 0 0 0 0-7.02 3.51 3.51 0 0 0 0 7.02zm121 0a3.51 3.51 0 0 0 0-7.02 3.51 3.51 0 0 0 0 7.02zm121 0a3.51 3.51 0 0 0 0-7.02 3.51 3.51 0 0 0 0 7.02zm-211.81 0a3.51 3.51 0 0 0 0-7.02 3.51 3.51 0 0 0 0 7.02zm121 0a3.51 3.51 0 1 0 0-7.02 3.51 3.51 0 0 0 0 7.02zm-90.56 28.62a3.51 3.51 0 0 0 0-7.02 3.51 3.51 0 0 0 0 7.02zm121 0a3.51 3.51 0 1 0 0-7.02 3.51 3.51 0 0 0 0 7.02zm-211.81 0a3.51 3.51 0 0 0 0-7.02 3.51 3.51 0 0 0 0 7.02zm121 0a3.51 3.51 0 1 0 0-7.02 3.51 3.51 0 0 0 0 7.02zm121 0a3.51 3.51 0 0 0 0-7.02 3.51 3.51 0 0 0 0 7.02zm-211.82 0a3.51 3.51 0 0 0 0-7.02 3.51 3.51 0 0 0 0 7.02zm121 0a3.51 3.51 0 0 0 0-7.02 3.51 3.51 0 0 0 0 7.02zm121 0a3.51 3.51 0 0 0 0-7.02 3.51 3.51 0 0 0 0 7.02zm-211.81 0a3.51 3.51 0 0 0 0-7.02 3.51 3.51 0 0 0 0 7.02zm121 0a3.51 3.51 0 1 0 0-7.02 3.51 3.51 0 0 0 0 7.02zm-90.56 28.63a3.51 3.51 0 1 0 0-7.02 3.51 3.51 0 1 0 0 7.02zm121 0a3.51 3.51 0 1 0 0-7.02 3.51 3.51 0 1 0 0 7.02zm-211.81 0a3.51 3.51 0 1 0 0-7.02 3.51 3.51 0 1 0 0 7.02zm121 0a3.51 3.51 0 1 0 0-7.02 3.51 3.51 0 1 0 0 7.02zm121 0a3.51 3.51 0 1 0 0-7.02 3.51 3.51 0 1 0 0 7.02zm-211.82 0a3.51 3.51 0 1 0 0-7.02 3.51 3.51 0 1 0 0 7.02zm121 0a3.51 3.51 0 1 0 0-7.02 3.51 3.51 0 1 0 0 7.02zm121 0a3.51 3.51 0 1 0 0-7.02 3.51 3.51 0 1 0 0 7.02zm-211.81 0a3.51 3.51 0 1 0 0-7.02 3.51 3.51 0 1 0 0 7.02zm121 0a3.51 3.51 0 1 0 0-7.02 3.51 3.51 0 1 0 0 7.02zm-90.56 28.69a3.51 3.51 0 1 0 0-7.02 3.51 3.51 0 1 0 0 7.02zm121 0a3.51 3.51 0 1 0 0-7.02 3.51 3.51 0 1 0 0 7.02zm-211.81 0a3.51 3.51 0 1 0 0-7.02 3.51 3.51 0 1 0 0 7.02zm121 0a3.51 3.51 0 1 0 0-7.02 3.51 3.51 0 1 0 0 7.02zm121 0a3.51 3.51 0 1 0 0-7.02 3.51 3.51 0 1 0 0 7.02zm-211.82 0a3.51 3.51 0 1 0 0-7.02 3.51 3.51 0 1 0 0 7.02zm121 0a3.51 3.51 0 1 0 0-7.02 3.51 3.51 0 1 0 0 7.02zm121 0a3.51 3.51 0 1 0 0-7.02 3.51 3.51 0 1 0 0 7.02zm-211.81 0a3.51 3.51 0 1 0 0-7.02 3.51 3.51 0 1 0 0 7.02zm121 0a3.51 3.51 0 1 0 0-7.02 3.51 3.51 0 1 0 0 7.02zm-90.56 28.63a3.51 3.51 0 1 0 0-7.02 3.51 3.51 0 1 0 0 7.02zm121 0a3.51 3.51 0 1 0 0-7.02 3.51 3.51 0 1 0 0 7.02zm-211.81 0a3.51 3.51 0 1 0 0-7.02 3.51 3.51 0 1 0 0 7.02zm121 0a3.51 3.51 0 1 0 0-7.02 3.51 3.51 0 1 0 0 7.02zm121 0a3.51 3.51 0 1 0 0-7.02 3.51 3.51 0 1 0 0 7.02zm-211.82 0a3.51 3.51 0 1 0 0-7.02 3.51 3.51 0 1 0 0 7.02zm121 0a3.51 3.51 0 1 0 0-7.02 3.51 3.51 0 1 0 0 7.02zm121 0a3.51 3.51 0 1 0 0-7.02 3.51 3.51 0 1 0 0 7.02zm-211.81 0a3.51 3.51 0 1 0 0-7.02 3.51 3.51 0 1 0 0 7.02zm121 0a3.51 3.51 0 1 0 0-7.02 3.51 3.51 0 1 0 0 7.02zM104.51 13.28a3.51 3.51 0 0 0 0-7.02 3.51 3.51 0 0 0 0 7.02zm0 226a3.51 3.51 0 1 0 0-7.02 3.51 3.51 0 1 0 0 7.02zm121-226a3.51 3.51 0 0 0 0-7.02 3.51 3.51 0 0 0 0 7.02zm0 226a3.51 3.51 0 1 0 0-7.02 3.51 3.51 0 1 0 0 7.02zM13.7 13.28a3.51 3.51 0 0 0 0-7.02 3.51 3.51 0 0 0 0 7.02zm0 226a3.51 3.51 0 1 0 0-7.02 3.51 3.51 0 1 0 0 7.02zm121-226a3.51 3.51 0 0 0 0-7.02 3.51 3.51 0 0 0 0 7.02zm0 226a3.51 3.51 0 1 0 0-7.02 3.51 3.51 0 1 0 0 7.02zm121-226a3.51 3.51 0 0 0 0-7.02 3.51 3.51 0 0 0 0 7.02zm0 226a3.51 3.51 0 1 0 0-7.02 3.51 3.51 0 1 0 0 7.02zm-211.82-226a3.51 3.51 0 0 0 0-7.02 3.51 3.51 0 0 0 0 7.02zm0 226a3.51 3.51 0 1 0 0-7.02 3.51 3.51 0 1 0 0 7.02zm121-226a3.51 3.51 0 0 0 0-7.02 3.51 3.51 0 0 0 0 7.02zm0 226a3.51 3.51 0 1 0 0-7.02 3.51 3.51 0 1 0 0 7.02zm121-226a3.51 3.51 0 0 0 0-7.02 3.51 3.51 0 0 0 0 7.02zm0 226a3.51 3.51 0 1 0 0-7.02 3.51 3.51 0 1 0 0 7.02zm-211.81-226a3.51 3.51 0 0 0 0-7.02 3.51 3.51 0 0 0 0 7.02zm0 226a3.51 3.51 0 1 0 0-7.02 3.51 3.51 0 1 0 0 7.02zm121-226a3.51 3.51 0 0 0 0-7.02 3.51 3.51 0 0 0 0 7.02zm0 226a3.51 3.51 0 1 0 0-7.02 3.51 3.51 0 1 0 0 7.02zM104.51 41.9a3.51 3.51 0 0 0 0-7.02 3.51 3.51 0 0 0 0 7.02zm0 226a3.51 3.51 0 0 0 0-7.02 3.51 3.51 0 0 0 0 7.02zm121-226a3.51 3.51 0 1 0 0-7.02 3.51 3.51 0 0 0 0 7.02zm0 226a3.51 3.51 0 0 0 0-7.02 3.51 3.51 0 0 0 0 7.02zM13.7 41.9a3.51 3.51 0 1 0 0-7.02 3.51 3.51 0 0 0 0 7.02zm0 226a3.51 3.51 0 0 0 0-7.02 3.51 3.51 0 0 0 0 7.02zm121-226a3.51 3.51 0 1 0 0-7.02 3.51 3.51 0 0 0 0 7.02zm0 226a3.51 3.51 0 0 0 0-7.02 3.51 3.51 0 0 0 0 7.02zm121-226a3.51 3.51 0 1 0 0-7.02 3.51 3.51 0 0 0 0 7.02zm0 226a3.51 3.51 0 0 0 0-7.02 3.51 3.51 0 0 0 0 7.02zM43.88 41.9a3.51 3.51 0 1 0 0-7.02 3.51 3.51 0 0 0 0 7.02zm0 226a3.51 3.51 0 0 0 0-7.02 3.51 3.51 0 0 0 0 7.02zm121-226a3.51 3.51 0 1 0 0-7.02 3.51 3.51 0 0 0 0 7.02zm0 226a3.51 3.51 0 0 0 0-7.02 3.51 3.51 0 0 0 0 7.02zm121-226a3.51 3.51 0 1 0 0-7.02 3.51 3.51 0 0 0 0 7.02zm0 226a3.51 3.51 0 0 0 0-7.02 3.51 3.51 0 0 0 0 7.02zM74.07 41.9a3.51 3.51 0 0 0 0-7.02 3.51 3.51 0 0 0 0 7.02zm0 226a3.51 3.51 0 0 0 0-7.02 3.51 3.51 0 0 0 0 7.02zm121-226a3.51 3.51 0 1 0 0-7.02 3.51 3.51 0 0 0 0 7.02zm0 226a3.51 3.51 0 0 0 0-7.02 3.51 3.51 0 0 0 0 7.02z" fill="#000"/></g></g><defs><clipPath id="B"><path fill="#fff" d="M0 0h300v300H0z"/></clipPath><path id="C" d="M104.51 67.45a3.51 3.51 0 1 0 0-7.02 3.51 3.51 0 1 0 0 7.02z"/><path id="D" d="M104.51 293.45a3.51 3.51 0 0 0 0-7.02 3.51 3.51 0 0 0 0 7.02z"/><path id="E" d="M225.51 96.08a3.51 3.51 0 1 0 0-7.02 3.51 3.51 0 0 0 0 7.02z"/></defs></svg>