<svg xmlns="http://www.w3.org/2000/svg" width="200" height="140" fill="none" xmlns:v="https://vecta.io/nano"><g clip-path="url(#A)" stroke="#000" stroke-width="5" stroke-miterlimit="10"><path d="M0 1.961c11.108 0 11.108 17.647 22.217 17.647S33.325 1.961 44.434 1.961s11.109 17.647 22.217 17.647S77.759 1.961 88.868 1.961s11.109 17.647 22.216 17.647 11.109-17.647 22.218-17.647 11.108 17.647 22.217 17.647S166.627 1.961 177.76 1.961 188.868 19.608 200 19.608M0 72.549c11.108 0 11.108 17.647 22.217 17.647s11.108-17.647 22.217-17.647 11.109 17.647 22.217 17.647 11.108-17.647 22.217-17.647 11.109 17.647 22.216 17.647 11.109-17.647 22.218-17.647 11.108 17.647 22.217 17.647 11.108-17.647 22.241-17.647S188.868 90.196 200 90.196"/><path d="M0 25.49c11.115 0 11.115 17.647 22.23 17.647S33.345 25.49 44.46 25.49s11.115 17.647 22.23 17.647S77.806 25.49 88.921 25.49s11.114 17.647 22.23 17.647 11.115-17.647 22.23-17.647 11.115 17.647 22.23 17.647 11.091-17.647 22.135-17.647S188.862 43.137 200 43.137M0 119.608c11.115 0 11.115 17.647 22.23 17.647s11.115-17.647 22.23-17.647 11.115 17.647 22.23 17.647 11.115-17.647 22.23-17.647 11.114 17.647 22.23 17.647 11.115-17.647 22.23-17.647 11.115 17.647 22.23 17.647 11.091-17.647 22.135-17.647 11.116 17.647 22.254 17.647M0 49.02c11.108 0 11.108 17.647 22.217 17.647S33.325 49.02 44.434 49.02s11.109 17.647 22.217 17.647S77.759 49.02 88.868 49.02s11.109 17.647 22.216 17.647 11.109-17.647 22.218-17.647 11.108 17.647 22.217 17.647S166.627 49.02 177.76 49.02 188.868 66.667 200 66.667M0 96.078c11.108 0 11.108 17.647 22.217 17.647s11.108-17.647 22.217-17.647 11.109 17.647 22.217 17.647 11.108-17.647 22.217-17.647 11.109 17.647 22.216 17.647 11.109-17.647 22.218-17.647 11.108 17.647 22.217 17.647 11.108-17.647 22.241-17.647 11.108 17.647 22.24 17.647"/></g><defs><clipPath id="A"><path fill="#fff" d="M0 0h200v139.216H0z"/></clipPath></defs></svg>